<svg width="310" height="376" viewBox="0 0 310 376" fill="none" xmlns="http://www.w3.org/2000/svg">
<path fill-rule="evenodd" clip-rule="evenodd" d="M39.9443 1.48383C21.2383 6.01883 6.11634 21.3028 1.66834 40.1708C-0.577657 49.6958 -0.545661 326.301 1.70234 335.838C6.16934 354.79 21.5423 370.033 40.6593 374.467C46.2793 375.77 62.0573 375.937 157.409 375.702L267.662 375.431L273.662 373.032C290.575 366.269 301.245 354.95 306.75 337.931C308.31 333.111 308.578 327.275 308.922 290.712L309.315 248.993L306.784 246.462L304.253 243.931H275.43C250.961 243.931 246.271 244.166 244.385 245.488C242.184 247.029 242.162 247.301 242.162 273.34C242.162 298.963 242.104 299.72 239.912 302.941C238.674 304.759 236.392 307.188 234.839 308.339C232.041 310.412 231.341 310.433 156.339 310.71C71.7983 311.021 74.7933 311.247 69.3953 304.17L66.6623 300.587V187.332V74.0778L68.7673 71.2538C69.9243 69.7008 72.3993 67.5308 74.2673 66.4308C77.5823 64.4778 79.4603 64.4308 154.162 64.4308C229.532 64.4308 230.714 64.4608 234.159 66.4848C236.082 67.6148 238.669 70.0438 239.909 71.8828C242.102 75.1378 242.162 75.9108 242.162 101.145C242.162 117.098 242.56 127.806 243.197 128.997C244.186 130.844 245.6 130.931 274.625 130.931H305.017L307.089 128.296C309.104 125.736 309.161 124.602 309.142 88.0458C309.131 67.3578 308.672 47.2808 308.122 43.4308C305.278 23.5448 289.813 6.78183 269.438 1.50183C264.095 0.117834 250.419 -0.0591727 154.518 0.0138273C65.3583 0.0828273 44.6273 0.347829 39.9443 1.48383ZM165.162 79.9308C162.466 82.6268 162.52 88.0398 165.268 90.5258C167.254 92.3228 169.027 92.4138 196.495 92.1298C221.537 91.8718 225.865 91.6048 227.389 90.2248C229.578 88.2438 229.688 83.1268 227.605 80.1538C226.057 77.9418 225.898 77.9308 196.605 77.9308C168.495 77.9308 167.071 78.0218 165.162 79.9308ZM81.6173 105.386C79.4723 107.53 79.1623 108.736 79.1623 114.931C79.1623 121.126 79.4723 122.332 81.6173 124.476L84.0713 126.931H154.617C236.226 126.931 229.07 127.913 229.277 116.681C229.444 107.599 229.257 106.615 226.991 104.681C225.08 103.05 220.139 102.931 154.506 102.931H84.0713L81.6173 105.386ZM81.1623 141.931C78.7693 144.324 78.5743 148.646 80.7193 151.708C82.2723 153.926 82.3493 153.931 114.028 153.931C137.868 153.931 146.198 153.62 147.457 152.681C150.283 150.575 150.623 145.787 148.168 142.665L146.017 139.931H114.589C84.4953 139.931 83.0773 140.016 81.1623 141.931ZM161.086 142.51C158.976 144.755 158.618 146.219 158.32 153.811C157.922 163.959 159.341 170.421 162.317 172.014C163.51 172.653 168.727 173.078 174.493 173.008C183.344 172.9 184.863 172.621 186.872 170.734C189.015 168.72 189.162 167.802 189.162 156.431C189.162 145.022 189.021 144.147 186.848 142.105C184.774 140.158 183.438 139.931 174.022 139.931C164.017 139.931 163.394 140.055 161.086 142.51ZM200.235 142.566C198.415 144.879 198.162 146.583 198.162 156.51C198.162 167.023 198.332 168.017 200.575 170.625C202.935 173.368 203.223 173.431 213.49 173.431C223.226 173.431 224.179 173.254 226.576 171.007C229.082 168.657 229.162 168.208 229.162 156.431C229.162 145.022 229.021 144.147 226.848 142.105C224.758 140.142 223.454 139.931 213.42 139.931C202.606 139.931 202.251 140.002 200.235 142.566ZM82.1763 183.763C79.4773 186.462 79.1623 187.421 79.1623 192.931C79.1623 198.399 79.4883 199.41 82.0853 202.008C84.9323 204.855 85.2733 204.931 95.1623 204.931C105.051 204.931 105.392 204.855 108.239 202.008C110.822 199.424 111.162 198.385 111.162 193.064C111.162 188.142 110.722 186.53 108.75 184.237C106.434 181.542 105.921 181.418 95.7643 181.09L85.1893 180.75L82.1763 183.763ZM121.609 183.223C118.856 185.591 118.662 186.229 118.662 192.931C118.662 199.551 118.878 200.29 121.468 202.518C124.048 204.737 125.116 204.931 134.763 204.931C144.567 204.931 145.413 204.771 147.707 202.476C149.849 200.335 150.162 199.123 150.162 192.976C150.162 184.024 148.484 181.931 141.309 181.931C138.639 181.931 133.778 181.651 130.506 181.309C125.108 180.745 124.284 180.922 121.609 183.223ZM162.662 182.086C159.139 184.013 158.162 186.181 158.162 192.075C158.162 203.108 160.519 204.931 174.786 204.931C183.986 204.931 184.417 204.83 187.239 202.008C189.836 199.41 190.162 198.399 190.162 192.931C190.162 187.463 189.836 186.452 187.239 183.854C184.399 181.015 184.035 180.932 174.489 180.961C169.084 180.978 163.762 181.484 162.662 182.086ZM202.662 182.086C199.004 184.087 198.162 186.159 198.162 193.168C198.162 199.112 198.488 200.348 200.617 202.476C202.911 204.771 203.757 204.931 213.561 204.931C223.059 204.931 224.303 204.714 226.719 202.635C228.964 200.704 229.408 199.473 229.51 194.885C229.774 183.098 227.257 180.914 213.462 180.961C208.622 180.978 203.762 181.484 202.662 182.086ZM84.5193 212.877C80.9183 214.407 79.1623 217.955 79.1623 223.703C79.1623 229.408 81.0783 234.301 83.7073 235.31C84.5973 235.651 89.9743 235.931 95.6553 235.931H105.984L108.677 232.731C111.109 229.841 111.331 228.919 110.967 223.21C110.363 213.721 108.738 212.494 96.3863 212.199C91.0383 212.071 85.6983 212.376 84.5193 212.877ZM123.182 213.168C119.335 215.188 118.002 218.656 118.526 225.275C118.864 229.532 119.603 231.772 121.25 233.525C123.369 235.78 124.192 235.931 134.382 235.931C144.591 235.931 145.402 235.781 147.707 233.476C149.809 231.375 150.162 230.089 150.162 224.532C150.162 219.115 149.763 217.579 147.75 215.237C145.45 212.561 144.881 212.418 135.5 212.148C128.854 211.957 124.857 212.288 123.182 213.168ZM162.662 213.139C158.745 215.385 158.098 217.158 158.41 224.79C158.835 235.148 159.949 235.941 174.023 235.899C187.977 235.857 190.162 234.168 190.162 223.42C190.162 218.517 189.779 217.394 187.239 214.854C184.399 212.015 184.035 211.932 174.489 211.961C168.986 211.978 163.782 212.496 162.662 213.139ZM204.162 212.637C203.337 212.939 201.649 214.107 200.412 215.233C198.496 216.976 198.162 218.298 198.162 224.151C198.162 230.113 198.487 231.347 200.617 233.476C202.922 235.781 203.733 235.931 213.942 235.931C223.939 235.931 224.984 235.749 226.938 233.67C231.663 228.64 230.582 216.234 225.175 213.438C222.304 211.953 207.569 211.392 204.162 212.637ZM85.1623 243.637C80.7713 245.242 79.1623 248.163 79.1623 254.529C79.1623 259.792 79.5703 261.263 81.7513 263.854C84.3393 266.93 84.3443 266.931 94.8283 266.931C105.087 266.931 105.38 266.867 108.239 264.008C110.709 261.537 111.162 260.291 111.162 255.958C111.162 249.845 109.272 245.758 105.69 244.126C103.09 242.941 88.0453 242.583 85.1623 243.637ZM123.162 244.225C119.309 246.174 117.842 250.216 118.648 256.666C119.129 260.516 120.059 262.919 121.705 264.565C123.895 266.755 124.859 266.931 134.662 266.931C144.573 266.931 145.41 266.774 147.707 264.476C149.843 262.341 150.162 261.118 150.162 255.065C150.162 248.525 149.978 247.954 147.085 245.52C144.261 243.143 143.256 242.932 134.835 242.946C129.455 242.954 124.628 243.483 123.162 244.225ZM162.662 244.139C159.171 246.141 158.226 248.278 158.194 254.247C158.134 265.155 160.293 266.857 174.238 266.899C184.281 266.929 184.933 266.804 187.192 264.399C189.057 262.413 189.66 260.477 189.981 255.436C190.368 249.358 190.224 248.839 187.353 245.968C184.377 242.992 184.119 242.932 174.489 242.961C168.986 242.978 163.782 243.496 162.662 244.139ZM204.432 243.634C203.205 243.871 201.269 245.251 200.129 246.7C198.153 249.212 198.071 250.35 198.359 271.221L198.662 293.108L201.468 295.519C204.024 297.716 205.153 297.931 214.162 297.931C223.066 297.931 224.319 297.7 226.75 295.609L229.45 293.286L229.731 272.859C230.053 249.388 229.513 246.393 224.585 244.334C221.433 243.017 209.73 242.611 204.432 243.634ZM83.4773 274.938C80.2433 276.241 79.1583 279.071 79.1943 286.115C79.2433 295.895 81.8173 297.931 94.1283 297.931C103.155 297.931 108.363 296.292 110.192 292.876C110.901 291.551 111.206 288.219 110.947 284.64C110.585 279.626 110.06 278.24 107.782 276.28C105.307 274.152 104.139 273.937 95.3563 273.994C90.0243 274.029 84.6793 274.454 83.4773 274.938ZM120.946 276.993C117.978 279.961 117.903 280.26 118.495 286.743C119.006 292.335 119.546 293.814 121.788 295.765C124.307 297.958 125.133 298.079 135.406 297.765C148.918 297.352 150.162 296.394 150.162 286.402C150.162 282.933 149.882 279.366 149.541 278.476C148.31 275.267 143.633 273.931 133.635 273.931C124.229 273.931 123.938 274.001 120.946 276.993ZM160.751 277.008C158.595 279.57 158.162 281.088 158.162 286.085C158.162 291.383 158.504 292.427 161.085 295.008C163.912 297.835 164.326 297.931 173.651 297.931C187.635 297.931 190.08 296.177 190.13 286.104C190.159 280.423 189.863 279.479 187.239 276.854C184.38 273.995 184.087 273.931 173.828 273.931C163.344 273.931 163.339 273.932 160.751 277.008Z" fill="white"/>
</svg>
