<svg xmlns="http://www.w3.org/2000/svg" width="65" height="71" viewBox="0 0 65 71" fill="none" class="injected-svg" data-src="/img/home/navbar/logo.svg" xmlns:xlink="http://www.w3.org/1999/xlink" role="img">
<ellipse cx="32.5" cy="31.1633" rx="32.5" ry="31.1633" transform="matrix(-1 0 0 1 65 4.86523)" fill="#f9f4fe"></ellipse>X
<path fill-rule="evenodd" clip-rule="evenodd" d="M39.9264 0.43558C41.3057 0.583682 42.5505 0.946185 44.1655 1.67012C45.5895 2.30836 46.0464 2.45073 46.6646 2.44875C47.5354 2.44592 48.1573 2.02797 48.2617 1.37522C48.288 1.21039 48.3449 1.07557 48.3881 1.07557C48.5525 1.07557 49.5639 1.8209 50.0057 2.26765C50.5959 2.86441 50.9437 3.45033 51.1725 4.233C51.5421 5.49764 51.4671 6.6878 50.9575 7.64378L50.7255 8.07908L51.2258 8.74244C52.7406 10.7508 53.249 12.988 53.0352 16.7045C52.9659 17.9108 52.9614 18.5246 53.0191 18.9105C53.063 19.2045 53.0997 19.9302 53.1005 20.5232L53.1021 21.6012L53.4407 21.7306C54.369 22.0851 55.3044 22.9193 55.9249 23.9457L56.2977 24.5626L56.8951 24.7844C57.7091 25.0864 57.9141 25.3116 57.9141 25.9044C57.9141 26.4253 57.7369 26.6624 57.3459 26.6643C57.2173 26.665 57.0777 26.6907 57.0357 26.7216C56.9902 26.755 56.9578 27.3033 56.9556 28.0762C56.9524 29.1791 56.9257 29.4719 56.7781 30.0204C56.409 31.3922 55.9509 32.2184 55.039 33.1573L54.4067 33.8085L54.5244 34.5322C54.5932 34.9555 54.6578 35.9852 54.68 37.0127C54.7103 38.4181 54.7471 38.8769 54.8642 39.307C55.3413 41.0601 55.3576 43.3076 54.9009 44.4005C54.8089 44.6208 54.8112 44.7194 54.9188 45.149C55.0104 45.5152 55.0436 46.0208 55.0462 47.095C55.0494 48.3901 55.0308 48.6117 54.8737 49.1546C54.6901 49.7887 54.3383 50.5207 54.0881 50.7893C54.006 50.8774 53.9422 51.0557 53.942 51.1972C53.9412 52.0437 53.489 53.7103 53.0077 54.6407C52.6746 55.2847 51.8694 56.2112 51.3728 56.522C51.136 56.6702 51.0498 56.7913 50.9389 57.1314C50.6602 57.9865 49.8937 59.0336 49.1139 59.6245C48.4976 60.0915 47.5251 60.5503 46.9652 60.6381C46.5714 60.6998 46.5158 60.6915 46.4214 60.5568C46.3635 60.4742 46.2871 60.419 46.2515 60.4341C46.0904 60.5024 45.4529 61.2636 45.5568 61.2636C45.7071 61.2636 47.1807 61.9905 47.9274 62.4331L48.5195 62.7839C48.5195 62.7839 48.8384 62.9937 49.1453 63.175C50.1083 63.7442 51.4806 64.6881 51.6065 64.8678C51.7985 65.1419 51.7642 65.5896 51.54 65.7364C51.2809 65.9062 51.1595 65.8559 49.9705 65.0847C48.4535 64.1007 45.945 62.6958 45.4067 62.5288C45.2367 62.476 45.2349 62.4833 45.2349 63.2094C45.2349 64.997 44.6126 66.5151 43.3295 67.8582C41.8967 69.3578 39.6865 70.3452 36.9563 70.7052C35.6815 70.8732 33.1327 70.815 31.7993 70.5874C26.4305 69.6708 20.8586 66.7361 16.5635 62.5628C14.405 60.4655 12.8472 58.3381 12.0048 56.337C11.8633 56.001 11.7401 55.714 11.7309 55.6994C11.6875 55.6301 7.98902 57.6788 6.50983 58.5916C5.17538 59.4149 5.24061 59.387 4.89461 59.2833C4.61651 59.2 4.60031 59.1783 4.60031 58.8877C4.60031 58.7186 4.63377 58.5177 4.67463 58.4413C4.81983 58.1701 6.70903 57.0216 10.9017 54.656C13.8089 53.0158 14.3791 52.6058 14.7504 51.8899C15.0238 51.3627 15.1901 48.6046 15.0694 46.5985C14.9727 44.99 14.771 42.5872 14.7137 42.3594C14.6826 42.2355 14.5529 42.1828 14.0273 42.0803C12.8167 41.8442 11.7654 41.2204 10.6165 40.0564C8.93904 38.357 7.87048 36.3901 7.30312 33.9575C7.10873 33.1242 7.08926 32.9092 7.08903 31.5897C7.08872 30.2186 7.10041 30.1005 7.30075 29.451C7.6298 28.3844 8.06059 27.6333 8.72487 26.968C9.53817 26.1534 10.3829 25.7446 11.5339 25.6088L11.9837 25.5556L11.8072 24.5245C11.2125 21.0499 11.0389 17.8169 11.3314 15.6643C11.7121 12.8639 12.9549 10.5039 14.8454 8.99129C15.5997 8.38773 16.3031 8.02989 17.2975 7.74369C18.0209 7.53555 18.0442 7.5218 18.1593 7.2353C18.4758 6.44774 19.5047 5.26116 20.56 4.46665C21.752 3.56933 23.1755 2.94362 25.1467 2.45066C26.0209 2.23198 26.3772 2.16904 28.8512 1.79653C29.5654 1.68899 30.7512 1.48406 31.4863 1.34115C33.4559 0.95833 34.8509 0.714369 35.84 0.579863C36.6991 0.463 39.32 0.370503 39.9264 0.43558ZM36.7856 10.6969C34.2348 9.26305 32.6763 8.72403 30.6248 8.56631C30.1955 8.53324 29.827 8.50207 29.806 8.49695C29.7849 8.49184 29.2694 8.51995 28.6602 8.55943C26.2004 8.71899 24.0579 9.38236 22.6498 10.4204C21.8036 11.0442 21.2185 11.9618 21.0184 12.9792C20.8328 13.9223 20.9783 15.0627 21.5248 16.9522C21.6264 17.3035 21.7096 17.7865 21.7096 18.0257C21.7096 18.5142 21.6365 18.6493 20.7563 19.7889C20.4804 20.1459 20.0846 20.7818 19.8766 21.2019C19.1981 22.5724 18.6544 24.5287 18.6544 25.5991V26.0573L19.0554 26.0053C19.276 25.9766 20.6078 25.7595 22.0151 25.5228L24.5739 25.0925L24.7796 24.713C25.9083 22.6306 28.5903 21.2349 31.4481 21.2425C32.9871 21.2467 34.0338 21.4522 35.1144 21.9624C36.4754 22.6049 37.3074 23.4269 37.9972 24.81L38.3872 25.592L38.6221 25.4343C40.0287 24.4905 42.3971 24.3264 43.2658 25.1125C43.3411 25.1806 43.411 25.2223 43.4213 25.2051C43.4315 25.1878 43.5573 24.938 43.7008 24.6499C44.0246 23.9996 44.9678 22.9826 45.6962 22.4984C47.2556 21.4617 49.3787 20.9706 51.1905 21.2277C51.6251 21.2894 51.7761 21.2868 51.8235 21.2171C51.8994 21.1057 51.8329 19.7952 51.6835 18.4588C51.3054 15.0756 50.2906 12.3477 48.6196 10.2222L48.0437 9.4896L47.773 9.76037C47.0826 10.4507 45.567 10.8739 43.7836 10.8744C42.8322 10.8746 42.5739 10.847 41.9512 10.6782C41.5525 10.5702 41.2165 10.4916 41.2045 10.5036C41.1754 10.5327 41.9121 11.0808 42.286 11.3084C42.4495 11.4078 42.776 11.5675 43.0116 11.6633C43.2471 11.7591 43.4399 11.8787 43.4399 11.9291C43.4399 12.3142 41.1408 12.3941 39.8864 12.0527C38.891 11.7818 38.1006 11.4362 36.7856 10.6969ZM53.7641 23.7703C53.0282 23.2658 52.1181 22.8961 51.1926 22.7256C49.9561 22.4978 48.4048 22.7254 47.259 23.3025C44.4167 24.7342 43.6823 28.4755 45.6601 31.448C46.6083 32.8731 47.991 33.6588 49.7063 33.7473C51.7381 33.8521 53.6094 32.9689 54.6213 31.4275C55.6604 29.8446 55.8209 27.7693 55.0607 25.7439C54.7545 24.9281 54.1821 24.0568 53.7641 23.7703ZM36.9851 26.4852C36.4282 24.632 34.9654 23.3536 32.8612 22.8814C32.1242 22.7159 30.3329 22.778 29.5789 22.9952C27.0278 23.7299 25.6472 25.7429 25.7812 28.5324C25.8357 29.6682 25.976 30.2386 26.43 31.1696C27.0768 32.4959 28.2232 33.4177 29.7296 33.8229C30.4344 34.0125 32.393 34.0095 33.0903 33.8178C34.8815 33.3253 36.3764 31.9332 36.9469 30.2263C37.3121 29.1341 37.3275 27.6244 36.9851 26.4852ZM42.9753 27.1377C42.9187 26.7006 42.8591 26.6417 42.2942 26.4639C41.5014 26.2145 39.846 26.4296 39.1343 26.8745L38.8004 27.0832L38.7828 28.3053C38.7624 29.7122 38.631 30.3276 38.1273 31.3746C37.1493 33.4071 35.2721 34.8619 33.0027 35.346C32.1795 35.5217 30.5323 35.5224 29.7607 35.3477C26.9815 34.718 25.0696 32.8999 24.4605 30.3078C24.303 29.6373 24.1538 28.3621 24.1538 27.6862V27.2742H23.8909C23.7463 27.2742 22.5347 27.3944 21.1985 27.5414C19.8623 27.6884 18.7252 27.8087 18.6719 27.8088C18.5972 27.8088 18.5847 27.9799 18.6177 28.5535C18.9316 34.016 19.6888 37.1869 21.3307 39.9152C22.5214 41.8938 24.5104 43.486 26.3737 43.9524C26.9078 44.0861 27.4382 44.1179 27.4382 44.0164C27.4382 43.9825 27.3512 43.8369 27.2448 43.6927C26.8387 43.1423 26.6832 41.9811 26.9684 41.6289L27.1097 41.4544L27.6209 41.7353C28.2646 42.0891 28.6688 42.1842 29.1094 42.0855C29.8849 41.9117 30.4641 41.5254 32.021 40.1439C33.4587 38.868 35.0656 38.054 36.763 37.7419L37.2659 37.6494L37.117 37.3486C36.9337 36.9778 36.9081 36.2467 37.06 35.7145C37.1855 35.2748 37.7873 34.6067 38.0578 34.6067C38.1473 34.6067 38.2075 34.6325 38.1914 34.664C37.638 35.7527 37.5617 36.2044 37.8401 36.7454C38.0992 37.249 38.2711 37.3055 39.2209 37.1986C40.0493 37.1054 40.9362 37.1802 41.1548 37.3617C41.2994 37.4817 41.2922 37.8087 41.1412 37.9754C41.0271 38.1016 41.0448 38.1176 41.4225 38.2297C42.2198 38.4665 42.9774 38.3473 43.9691 37.8289C44.5993 37.4996 45.3355 36.8409 45.5575 36.4079C45.7571 36.0185 45.823 35.1563 45.696 34.5956C45.645 34.3707 45.2291 33.4133 44.7716 32.4681C44.3142 31.5228 43.8225 30.3886 43.679 29.9475C43.3754 29.0145 43.0501 27.7159 42.9753 27.1377ZM14.9197 29.0945C14.2128 28.1609 13.2759 27.4491 12.357 27.1476C11.488 26.8625 10.3668 27.2265 9.61585 28.0376C8.79392 28.9254 8.41347 30.0615 8.4137 31.6279C8.41385 33.2108 8.74175 34.577 9.48601 36.0961C10.6667 38.506 12.3905 40.1958 14.0943 40.6136C14.5554 40.7266 14.6989 40.7296 15.3772 40.6399C16.0467 40.5512 16.1551 40.553 16.256 40.6539C16.3545 40.7524 16.3752 41.2822 16.3987 44.3139C16.445 50.2697 16.3002 52.1639 15.7377 52.9571C15.6384 53.0972 15.6062 53.2244 15.6411 53.339C15.7311 53.6351 16.6638 55.316 17.0927 55.9551C19.187 59.0764 22.8173 62.1213 26.7889 64.0878C29.1939 65.2787 31.4079 65.9712 33.6549 66.2354C34.6081 66.3475 36.598 66.2823 37.3676 66.1137C39.874 65.5647 41.3698 64.4345 41.5423 62.9592L41.5842 62.6003L40.5609 62.5838C39.8244 62.5719 39.4551 62.5329 39.2435 62.4444C38.9207 62.3095 38.8224 62.3658 38.82 62.6864C38.8178 62.9923 38.6456 63.0454 37.805 62.9993C36.553 62.9307 35.153 62.4402 33.7557 61.5806C33.1168 61.1876 33.0778 61.1789 33.0159 61.4163C32.9699 61.5931 32.934 61.6067 32.5344 61.5986C31.7177 61.5822 30.164 60.9322 29.0626 60.1463C28.4197 59.6875 27.5503 58.8642 27.121 58.3079L26.7904 57.8794L26.7213 58.1202C26.6834 58.2527 26.6113 58.3611 26.5614 58.3611C26.4347 58.3611 25.6621 57.8106 25.1294 57.3409C23.6027 55.9946 21.9379 53.422 21.5141 51.7542C21.4171 51.3722 21.394 51.4104 21.3757 51.9833C21.3612 52.4355 21.1972 52.3735 20.77 51.7542C19.4342 49.8182 18.5032 47.5702 17.7314 44.4178C16.9254 41.1259 16.5754 38.1805 16.4541 33.6682C16.4208 32.4285 16.3712 31.6784 16.3204 31.6441C16.276 31.6142 16.1933 31.4694 16.1366 31.3223C15.9059 30.7246 15.2637 29.5489 14.9197 29.0945ZM48.1894 34.9626C47.8191 34.8496 47.355 34.6733 47.1583 34.5709C46.6959 34.3301 46.6833 34.3319 46.7696 34.6258C46.8097 34.7624 46.8639 35.1908 46.8902 35.578C46.9485 36.4379 46.8243 36.8334 46.3296 37.3621L45.9987 37.7159L46.5524 37.8056C47.6803 37.9882 48.4718 38.3537 49.3243 39.0858C49.8795 39.5626 50.5758 40.4266 51.0177 41.1872C51.2092 41.5168 51.408 41.7865 51.4594 41.7865C51.6081 41.7865 52.153 41.3213 52.4435 40.9463C52.8146 40.4674 53.1585 39.7445 53.3451 39.0518C53.5613 38.2491 53.6195 36.3247 53.4595 35.2695C53.3969 34.8569 53.3305 34.5042 53.312 34.4857C53.2935 34.4672 53.0808 34.5393 52.8393 34.6461C51.8801 35.0703 51.3242 35.1749 50.0468 35.1714C48.9849 35.1685 48.7936 35.147 48.1894 34.9626ZM40.4207 38.8648C40.3738 38.6023 40.2813 38.3038 40.2153 38.2014L40.0951 38.0154L39.9226 38.2317C39.3492 38.9508 39.7429 40.6849 40.6407 41.3955C41.0015 41.6809 41.3923 41.841 41.9777 41.9429C42.8486 42.0946 43.94 41.7462 44.4367 41.1579C44.9553 40.5436 45.2101 39.4911 44.9759 38.9305C44.7913 38.4887 44.6439 38.6085 44.3572 39.4334C44.0539 40.306 43.4744 40.7205 42.477 40.7783C41.97 40.8076 41.834 40.7864 41.4743 40.6218C40.8659 40.3431 40.6079 39.913 40.4207 38.8648ZM45.6328 44.689C44.6764 44.689 43.5517 44.2632 42.7143 43.5842C42.4832 43.3968 42.2823 43.2422 42.2677 43.2406C42.2532 43.239 42.0816 43.3783 41.8866 43.55C41.2182 44.1383 39.998 44.6188 38.505 44.8815C37.7616 45.0123 37.6729 45.0161 37.5265 44.9235C37.4403 44.8689 37.4916 44.773 37.7769 44.4558C37.9742 44.2363 38.1213 44.0423 38.1037 44.0248C38.0862 44.0071 37.879 44.116 37.6435 44.2667C36.8107 44.7994 35.3444 45.2734 33.9526 45.4598C33.3863 45.5356 32.0659 45.522 31.2954 45.4324C31.1501 45.4154 31.1429 45.4577 31.1489 46.293C31.1557 47.2518 31.2716 47.773 31.6425 48.5122C32.2996 49.8219 33.7079 50.8463 35.4581 51.2879C36.2789 51.495 37.4533 51.5964 38.006 51.508L38.377 51.4487L38.6233 50.7587C38.9483 49.8482 39.3561 49.0841 39.7655 48.619L40.0986 48.2407L39.3251 48.0767C37.6543 47.7224 36.9391 47.2335 37.3234 46.7086C37.4278 46.566 37.5517 46.5603 40.5505 46.5603C43.2348 46.5603 43.7983 46.5401 44.597 46.4155C45.1074 46.3358 45.578 46.2911 45.6427 46.3159C45.7076 46.3408 45.8154 46.4447 45.8823 46.5468C45.9814 46.6981 45.9873 46.7691 45.914 46.9299C45.7745 47.2361 44.9548 47.7305 44.2299 47.9458C44.0264 48.0062 43.86 48.0757 43.86 48.1002C43.86 48.1247 44.0613 48.36 44.3072 48.623C44.8132 49.1637 45.3547 49.9972 45.6605 50.7054L45.8671 51.1842L46.143 51.1386C46.6187 51.0598 47.3977 50.7959 47.7554 50.5924C49.4604 49.6225 50.321 48.032 50.26 45.9637L50.2378 45.2144L49.3976 45.1905C48.2317 45.1574 46.8042 44.7635 46.1279 44.2884C45.872 44.1085 45.7809 44.1482 45.9982 44.3448C46.2849 44.6043 46.1951 44.689 45.6328 44.689ZM16.9432 58.2084C16.2874 57.3854 15.2161 55.7749 14.7208 54.8674C14.3641 54.2138 14.3288 54.1742 14.1861 54.2669C14.1021 54.3214 13.7584 54.5147 13.4223 54.6962C13.0862 54.8779 12.8022 55.0325 12.7911 55.04C12.724 55.0848 13.1582 56.231 13.502 56.9165C14.3324 58.5723 15.4628 60.0695 17.16 61.7615C20.962 65.5518 25.8969 68.3349 30.5521 69.3143C33.7894 69.9953 37.0132 69.8855 39.3246 69.0155C41.6196 68.1517 43.162 66.7169 43.7579 64.8917C43.9244 64.3815 43.9634 64.0953 43.9944 63.1579L44.0315 62.0352L43.5256 62.1996C43.0671 62.3487 43.0198 62.3834 43.0198 62.5709C43.0198 63.0445 42.7752 64.0105 42.5288 64.5098C41.5208 66.5526 38.7611 67.7588 35.1046 67.7546C32.3161 67.7514 29.5739 67.0436 26.407 65.5098C24.3136 64.4959 22.5473 63.3738 20.5864 61.8118C19.5966 61.0234 17.6601 59.1081 16.9432 58.2084Z" fill="black"></path>
<path d="M32.0768 18.037C32.8799 18.1415 33.4797 18.3227 34.2114 18.682C35.5065 19.3179 36.2018 20.1791 36.129 21.057C36.0749 21.7091 36.0184 21.7213 34.9235 21.3162C33.8641 20.9243 33.0296 20.7715 31.7085 20.7275C29.4738 20.653 27.7578 21.0988 25.7511 22.2752C25.4323 22.462 25.104 22.6149 25.0216 22.6149C24.3899 22.6149 24.7059 21.4369 25.6414 20.3039C27.1098 18.5256 29.4622 17.6969 32.0768 18.037Z" fill="black"></path>
<path d="M49.6649 18.3198C50.2284 18.5371 50.4527 18.6858 50.8371 19.0968C51.3657 19.6619 51.8924 20.872 51.5745 20.7907C50.8183 20.5974 49.4028 20.5761 48.3087 20.7415C46.9078 20.9534 46.0375 21.2515 44.907 21.9064L44.541 22.1185L44.3828 21.9276C44.2444 21.7604 44.2289 21.6606 44.2585 21.1256C44.3291 19.8455 45.1156 18.9601 46.6844 18.3945C47.2926 18.1752 49.1681 18.1283 49.6649 18.3198Z" fill="black"></path>
<path d="M12.2591 29.5214C13.1031 29.8684 13.7851 30.6092 14.488 31.9422C15.0264 32.9633 15.298 34.2284 15.0273 34.4531C14.8537 34.5972 14.7263 34.5056 14.4705 34.0523C14.0708 33.3441 13.5914 33.0747 13.1508 33.3105C12.6363 33.5859 12.5843 34.8388 13.0482 35.786C13.2966 36.2934 13.893 36.8815 14.4407 37.159C14.8877 37.3855 14.975 37.624 14.6416 37.7077C14.1596 37.8286 13.4241 37.4818 12.7717 36.8258C11.9738 36.0237 11.6475 35.1661 11.725 34.075C11.8031 32.9747 12.4232 32.0861 13.1129 32.0861C13.2201 32.0861 13.3077 32.0538 13.3077 32.0141C13.3077 31.9745 13.1155 31.7345 12.8807 31.4808C12.3394 30.8962 11.6197 30.5143 11.2056 30.592C10.8006 30.668 10.3795 31.0908 10.1343 31.6679C9.98355 32.0224 9.88402 32.1625 9.78274 32.1625C9.65801 32.1625 9.64144 32.0964 9.64144 31.5985C9.64144 30.5599 10.0131 29.8584 10.7435 29.5183C11.2376 29.2882 11.6944 29.2892 12.2591 29.5214Z" fill="black"></path>
<path fill-rule="evenodd" clip-rule="evenodd" d="M48.681 24.8543C49.8622 25.2965 50.5497 26.4479 50.6368 28.1299C50.7024 29.3953 50.419 30.4349 49.8236 31.1131C49.1935 31.8306 48.0155 32.0769 47.1767 31.6665C45.5822 30.8864 44.9606 28.0621 45.9586 26.1321C46.1678 25.7275 46.6892 25.2129 47.1016 25.0039C47.5633 24.7699 48.2753 24.7025 48.681 24.8543ZM48.1179 27.2308C48.0778 26.8748 47.9067 26.615 47.6409 26.5062C47.4266 26.4185 47.4012 26.4204 47.101 26.5458C46.5722 26.7667 46.4759 27.542 46.9297 27.9239C47.2573 28.1995 47.5575 28.1748 47.8873 27.845C48.1344 27.5979 48.1535 27.547 48.1179 27.2308Z" fill="black"></path>
<path d="M40.2153 38.2014C40.2813 38.3038 40.3738 38.6023 40.4207 38.8648C40.6079 39.913 40.8659 40.3431 41.4743 40.6218C41.834 40.7864 41.97 40.8076 42.477 40.7783C43.4744 40.7205 44.0539 40.306 44.3572 39.4334C44.6439 38.6085 44.7913 38.4887 44.9759 38.9305C45.2101 39.4911 44.9553 40.5436 44.4367 41.1579C43.94 41.7462 42.8486 42.0946 41.9777 41.9429C41.3923 41.841 41.0015 41.6809 40.6407 41.3955C39.7429 40.6849 39.3492 38.9508 39.9226 38.2317L40.0951 38.0154L40.2153 38.2014Z" fill="#E67F28"></path>
<path d="M53.8906 30.9428L52.9767 32.0916L52.8458 31.2678C52.5964 29.6976 52.2426 24.5783 52.3621 24.267C52.4246 24.1043 52.9089 24.2724 53.2958 24.4481C53.287 24.4481 53.2936 24.8691 53.3103 25.3837C53.351 26.6326 53.5187 28.4305 53.7234 29.8133L53.8906 30.9428Z" fill="black"></path>
<path fill-rule="evenodd" clip-rule="evenodd" d="M31.5424 24.7877C32.5474 25.102 33.3113 26.0745 33.5913 27.3961C33.8093 28.4251 33.7083 29.3901 33.287 30.3035C32.9585 31.0159 32.5147 31.4897 31.8856 31.7993C31.4462 32.0156 31.3064 32.0467 30.7673 32.0476C30.224 32.0484 30.091 32.0189 29.6403 31.7971C28.5013 31.2366 27.922 29.9772 27.9994 28.2295C28.0433 27.2371 28.2209 26.6538 28.6932 25.9512C29.3785 24.9319 30.5167 24.4671 31.5424 24.7877ZM30.6837 27.922C31.0768 27.5576 31.0265 26.9078 30.5819 26.609C30.2786 26.4051 30.1139 26.3922 29.8112 26.5487C29.4973 26.7111 29.3521 26.9549 29.3521 27.3197C29.3521 28.0444 30.1582 28.409 30.6837 27.922Z" fill="black"></path>
</svg>